<svg width="129" height="128" viewBox="0 0 129 128" fill="none" xmlns="http://www.w3.org/2000/svg">
<g clip-path="url(#clip0_1506_3745)">
<path d="M110.34 38.5318C110.355 38.5561 110.377 38.5722 110.404 38.58C110.41 38.5816 110.416 38.5818 110.422 38.5807C110.428 38.5796 110.434 38.5771 110.439 38.5736C110.444 38.57 110.448 38.5653 110.451 38.5599C110.454 38.5545 110.456 38.5485 110.456 38.5424C111.542 26.6859 105.562 15.2953 95.2919 9.60589C85.0218 3.91765 73.407 1.27412 61.7748 1.77765C51.9997 2.2004 42.7791 4.75648 34.1132 9.44589C27.6207 12.9588 22.6094 18.8682 20.1731 25.92C18.7756 29.9663 18.2684 34.1596 18.6515 38.5C18.6623 38.6255 18.7008 38.6349 18.7671 38.5282C23.5009 30.882 29.6762 24.7647 37.293 20.1765C38.0029 19.749 38.6848 19.3612 39.3384 19.013C48.4669 14.1549 58.158 12.0867 68.4119 12.8082C77.4247 13.442 85.8405 16.2812 93.6592 21.3259C94.2728 21.722 94.9115 22.1592 95.5752 22.6377C101.551 26.9498 106.472 32.2479 110.34 38.5318Z" stroke="#A0A0A1" stroke-width="2"/>
<path d="M26.8633 113.273C35.7466 120.02 45.6706 124.116 56.6352 125.561C57.4323 125.666 58.2397 125.753 59.0576 125.822C64.5962 126.287 69.9783 126.061 75.2039 125.144C85.1093 123.404 94.1183 119.451 102.231 113.285C102.336 113.205 102.324 113.176 102.194 113.198C96.8274 114.111 91.1779 114.488 85.8127 113.889C83.3348 113.612 80.7066 113.021 78.5224 111.9C76.4168 110.82 74.8119 109.192 74.2731 106.821C74.1466 106.264 74.0942 105.482 74.1158 104.475C74.1682 102.039 74.4045 99.773 74.8246 97.6765C76.3012 90.3141 79.7249 83.7647 84.853 78.3247C86.3623 76.7239 87.8231 75.1577 89.2353 73.6259C89.8096 73.0031 90.3461 72.4722 90.8448 72.033C93.7186 69.5004 97.0456 68.0129 100.826 67.5706C101.461 67.4961 102.199 67.4596 103.039 67.4612C105.174 67.4651 107.268 67.4647 109.32 67.46C113.381 67.4518 116.203 71.3224 115.202 75.2777C112.824 84.6753 108.322 92.8032 101.695 99.6612C98.4223 103.049 94.7627 105.93 90.7165 108.306C90.6109 108.367 90.6186 108.405 90.7396 108.42C102.285 109.785 113.383 103.991 119.09 93.7236C127.312 78.933 129.349 61.193 124.772 44.8729C122.505 36.7867 118.764 29.391 113.547 22.6859C113.434 22.5392 113.394 22.5576 113.427 22.7412C114.256 27.3106 114.744 31.9259 114.648 36.3859C114.572 40.0047 114.086 43.6188 112.755 46.9306C111.987 48.8412 110.604 50.2494 108.634 50.7318C108.143 50.8518 107.476 50.9055 106.634 50.8929C99.0109 50.7753 91.7452 49.1753 84.8368 46.0929C83.6937 45.5824 82.5909 45.0624 81.5287 44.5329C77.5962 42.5718 73.2902 40.8894 68.9993 40.1553C64.972 39.4659 60.8383 39.7506 56.8954 40.8741C54.091 41.6741 51.2755 42.7526 48.4487 44.1094C46.9259 44.84 45.4124 45.6082 43.856 46.2859C36.9993 49.2682 29.6824 50.8094 22.2325 50.8929C21.4801 50.9016 20.87 50.8424 20.4021 50.7153C18.4237 50.1777 17.1159 48.8165 16.3401 46.8894C15.2774 44.2494 14.7629 41.3871 14.564 38.4765C14.2079 33.24 14.7305 27.8365 15.6902 22.7106C15.7203 22.5474 15.6848 22.531 15.5839 22.6612C8.39064 31.92 3.79328 42.8565 2.41153 54.5518C0.872522 67.5882 3.2082 80.6635 9.24051 92.2824C9.85796 93.4714 10.465 94.529 11.0616 95.4553C17.0153 104.705 27.6045 109.692 38.4042 108.418C38.4882 108.407 38.494 108.381 38.4215 108.338C30.6436 103.698 24.4244 97.4639 19.7638 89.6341C17.3595 85.5949 15.4852 81.1071 14.1408 76.1706C13.8756 75.1957 13.733 74.4259 13.713 73.8612C13.6101 70.9341 15.5018 68.3659 18.3034 67.6377C18.8091 67.5059 19.4732 67.4447 20.2957 67.4541C21.7773 67.4698 23.7113 67.4706 26.0979 67.4565C30.8167 67.4282 35.2024 69.1659 38.6447 72.38C38.9838 72.6969 39.5254 73.2545 40.2692 74.053C41.6437 75.529 42.993 76.9784 44.3174 78.4012C45.0019 79.1369 45.5218 79.7161 45.8772 80.1388C51.5776 86.9118 54.784 95.3847 55.0002 104.334C55.0233 105.269 54.9756 106.053 54.8568 106.687C53.8173 112.245 46.5883 113.652 42.0672 114.014C37.0872 114.413 31.944 114.036 26.8957 113.196C26.7824 113.178 26.7716 113.203 26.8633 113.273Z" stroke="#8599AA" stroke-width="2"/>
<path d="M74.6707 62.3576C74.6707 59.6281 73.605 57.0104 71.708 55.0803C69.8111 53.1502 67.2382 52.0659 64.5555 52.0659C61.8729 52.0659 59.3 53.1502 57.4031 55.0803C55.5061 57.0104 54.4404 59.6281 54.4404 62.3576C54.4404 65.0872 55.5061 67.7049 57.4031 69.635C59.3 71.5651 61.8729 72.6494 64.5555 72.6494C67.2382 72.6494 69.8111 71.5651 71.708 69.635C73.605 67.7049 74.6707 65.0872 74.6707 62.3576Z" stroke="#8599AA" stroke-width="2"/>
<path d="M110.34 38.5318C106.472 32.2479 101.551 26.9498 95.5752 22.6377C94.9115 22.1592 94.2728 21.722 93.6592 21.3259C85.8405 16.2812 77.4247 13.442 68.4119 12.8082C58.158 12.0867 48.4669 14.1549 39.3384 19.013C38.6848 19.3612 38.0029 19.749 37.293 20.1765C29.6762 24.7647 23.5009 30.882 18.7671 38.5282C18.7008 38.6349 18.6623 38.6255 18.6515 38.5C18.2684 34.1596 18.7756 29.9663 20.1731 25.92C22.6094 18.8682 27.6207 12.9588 34.1132 9.44589C42.7791 4.75648 51.9997 2.2004 61.7748 1.77765C73.407 1.27412 85.0218 3.91765 95.2919 9.60589C105.562 15.2953 111.542 26.6859 110.456 38.5424C110.456 38.5485 110.454 38.5545 110.451 38.5599C110.448 38.5653 110.444 38.57 110.439 38.5736C110.434 38.5771 110.428 38.5796 110.422 38.5807C110.416 38.5818 110.41 38.5816 110.404 38.58C110.377 38.5722 110.355 38.5561 110.34 38.5318Z" fill="white"/>
<path d="M26.8633 113.273C26.7716 113.203 26.7824 113.178 26.8957 113.196C31.944 114.036 37.0872 114.413 42.0672 114.014C46.5883 113.652 53.8173 112.245 54.8568 106.687C54.9756 106.053 55.0233 105.269 55.0002 104.334C54.784 95.3847 51.5776 86.9118 45.8772 80.1388C45.5218 79.7161 45.0019 79.1369 44.3174 78.4012C42.993 76.9784 41.6437 75.529 40.2692 74.053C39.5254 73.2545 38.9838 72.6969 38.6447 72.38C35.2024 69.1659 30.8167 67.4282 26.0979 67.4565C23.7113 67.4706 21.7773 67.4698 20.2957 67.4541C19.4732 67.4447 18.8091 67.5059 18.3034 67.6377C15.5018 68.3659 13.6101 70.9341 13.713 73.8612C13.733 74.4259 13.8756 75.1957 14.1408 76.1706C15.4852 81.1071 17.3595 85.5949 19.7638 89.6341C24.4244 97.4639 30.6436 103.698 38.4215 108.338C38.494 108.381 38.4882 108.407 38.4042 108.418C27.6045 109.692 17.0153 104.705 11.0616 95.4553C10.465 94.529 9.85796 93.4714 9.24051 92.2824C3.2082 80.6635 0.872522 67.5882 2.41153 54.5518C3.79328 42.8565 8.39064 31.92 15.5838 22.6612C15.6848 22.531 15.7203 22.5474 15.6902 22.7106C14.7305 27.8365 14.2079 33.24 14.564 38.4765C14.7629 41.3871 15.2774 44.2494 16.3401 46.8894C17.1159 48.8165 18.4237 50.1777 20.4021 50.7153C20.87 50.8424 21.4801 50.9016 22.2325 50.8929C29.6824 50.8094 36.9993 49.2682 43.856 46.2859C45.4124 45.6082 46.9259 44.84 48.4487 44.1094C51.2755 42.7526 54.091 41.6741 56.8954 40.8741C60.8383 39.7506 64.972 39.4659 68.9993 40.1553C73.2902 40.8894 77.5962 42.5718 81.5287 44.5329C82.591 45.0624 83.6936 45.5824 84.8368 46.0929C91.7452 49.1753 99.0109 50.7753 106.634 50.8929C107.476 50.9055 108.143 50.8518 108.634 50.7318C110.604 50.2494 111.987 48.8412 112.755 46.9306C114.086 43.6188 114.572 40.0047 114.648 36.3859C114.744 31.9259 114.256 27.3106 113.427 22.7412C113.394 22.5576 113.434 22.5392 113.547 22.6859C118.764 29.391 122.505 36.7867 124.772 44.8729C129.349 61.193 127.312 78.933 119.09 93.7235C113.383 103.991 102.285 109.785 90.7396 108.42C90.6186 108.405 90.6109 108.367 90.7165 108.306C94.7627 105.93 98.4223 103.049 101.695 99.6612C108.322 92.8032 112.824 84.6753 115.202 75.2777C116.203 71.3224 113.381 67.4518 109.32 67.46C107.268 67.4647 105.174 67.4651 103.039 67.4612C102.199 67.4596 101.461 67.4961 100.826 67.5706C97.0456 68.0129 93.7186 69.5004 90.8448 72.033C90.3461 72.4722 89.8096 73.0032 89.2353 73.6259C87.8231 75.1577 86.3623 76.7239 84.853 78.3247C79.7249 83.7647 76.3012 90.3141 74.8246 97.6765C74.4045 99.773 74.1682 102.039 74.1158 104.475C74.0942 105.482 74.1466 106.264 74.2731 106.821C74.8119 109.192 76.4168 110.82 78.5224 111.9C80.7066 113.021 83.3348 113.612 85.8127 113.889C91.1779 114.488 96.8274 114.111 102.194 113.198C102.324 113.176 102.336 113.205 102.231 113.285C94.1183 119.451 85.1093 123.404 75.2039 125.144C69.9783 126.061 64.5962 126.287 59.0576 125.822C58.2397 125.753 57.4323 125.666 56.6352 125.561C45.6706 124.116 35.7466 120.02 26.8633 113.273ZM74.6708 62.3577C74.6708 59.6281 73.6051 57.0104 71.7082 55.0803C69.8112 53.1502 67.2384 52.0659 64.5557 52.0659C61.873 52.0659 59.3002 53.1502 57.4032 55.0803C55.5063 57.0104 54.4406 59.6281 54.4406 62.3577C54.4406 65.0872 55.5063 67.705 57.4032 69.635C59.3002 71.5651 61.873 72.6494 64.5557 72.6494C67.2384 72.6494 69.8112 71.5651 71.7082 69.635C73.6051 67.705 74.6708 65.0872 74.6708 62.3577Z" fill="white"/>
</g>
<defs>
<clipPath id="clip0_1506_3745">
<rect width="128" height="128" fill="white" transform="translate(0.5)"/>
</clipPath>
</defs>
</svg>
