<svg width="17" height="16" viewBox="0 0 17 16" fill="none" xmlns="http://www.w3.org/2000/svg">
<path d="M13.1667 7.3335H3.83333C3.09695 7.3335 2.5 7.93045 2.5 8.66683V13.3335C2.5 14.0699 3.09695 14.6668 3.83333 14.6668H13.1667C13.903 14.6668 14.5 14.0699 14.5 13.3335V8.66683C14.5 7.93045 13.903 7.3335 13.1667 7.3335Z" stroke="#111827" stroke-width="2" stroke-linecap="round" stroke-linejoin="round"/>
<path d="M5.1665 7.3335V4.66683C5.1665 3.78277 5.51769 2.93493 6.14281 2.30981C6.76794 1.68469 7.61578 1.3335 8.49984 1.3335C9.38389 1.3335 10.2317 1.68469 10.8569 2.30981C11.482 2.93493 11.8332 3.78277 11.8332 4.66683V7.3335" stroke="#111827" stroke-width="2" stroke-linecap="round" stroke-linejoin="round"/>
</svg>
